#define Arch_width 12
#define Arch_height 12
static unsigned char Arch_bits[] = {
   0x00, 0x00, 0x60, 0x00, 0x60, 0x00, 0xf0, 0x00, 0xf0, 0x00, 0xf8, 0x01,
   0xf8, 0x01, 0x9c, 0x03, 0x9c, 0x03, 0x0e, 0x07, 0x02, 0x04, 0x00, 0x00 };
