#define Dropbox_width 16
#define Dropbox_height 16
static unsigned char Dropbox_bits[] = {
   0x00, 0x00, 0x30, 0x0c, 0x78, 0x1e, 0xfc, 0x3f, 0x7e, 0x7e, 0x1c, 0x38,
   0x08, 0x10, 0x1c, 0x38, 0x7e, 0x7e, 0xfc, 0x3f, 0xb8, 0x1d, 0xd0, 0x0b,
   0xf0, 0x0f, 0xe0, 0x07, 0x80, 0x01, 0x00, 0x00 };
