#define LD_width 20
#define LD_height 20
static unsigned char LD_bits[] = {
   0x00, 0xc0, 0x03, 0x00, 0xc0, 0x03, 0x00, 0xc0, 0x03, 0x00, 0xc0, 0x03,
   0x00, 0xc0, 0x03, 0xfc, 0xc3, 0x03, 0xfc, 0xc3, 0x03, 0xfc, 0xc3, 0x03,
   0xfc, 0xc3, 0x03, 0x3c, 0xc0, 0x03, 0x3c, 0xc0, 0x03, 0x3c, 0xc0, 0x03,
   0x3c, 0xfe, 0x03, 0x3c, 0xfe, 0x03, 0x3c, 0xfe, 0x03, 0x3c, 0xfe, 0x03,
   0x3c, 0x00, 0x00, 0x3c, 0x00, 0x00, 0x3c, 0x00, 0x00, 0x3c, 0x00, 0x00 };
