#define Lapis_width 13
#define Lapis_height 13
static unsigned char Lapis_bits[] = {
   0x00, 0x00, 0x00, 0x06, 0x00, 0x0f, 0x80, 0x0f, 0x40, 0x07, 0xe0, 0x02,
   0xf0, 0x01, 0xf8, 0x00, 0x7c, 0x00, 0x3a, 0x00, 0x16, 0x00, 0x0e, 0x00,
   0x00, 0x00 };
