#define Mem_width 9
#define Mem_height 10
static unsigned char Mem_bits[] = {
   0x00, 0x00, 0xaa, 0x00, 0x00, 0x00, 0xfe, 0x00, 0xfe, 0x00, 0xfe, 0x00,
   0xfe, 0x00, 0x00, 0x00, 0xaa, 0x00, 0x00, 0x00 };
