#define Musica_width 11
#define Musica_height 11
static unsigned char Musica_bits[] = {
   0x00, 0x00, 0xf8, 0x03, 0xf8, 0x03, 0xf8, 0x03, 0x08, 0x02, 0x08, 0x02,
   0x08, 0x02, 0x08, 0x02, 0x8e, 0x03, 0x8e, 0x03, 0x00, 0x00 };
