#define Pacman_width 10
#define Pacman_height 11
static unsigned char Pacman_bits[] = {
   0x00, 0x00, 0xf8, 0x00, 0xfc, 0x01, 0xfe, 0x00, 0x7e, 0x00, 0x3e, 0x00,
   0x7e, 0x00, 0xfe, 0x00, 0xfc, 0x01, 0xf8, 0x00, 0x00, 0x00 };
