#define PD_width 23
#define PD_height 23
static unsigned char PD_bits[] = {
   0xe1, 0x01, 0x00, 0xc3, 0x03, 0x00, 0x87, 0x07, 0x00, 0x0f, 0x0f, 0x00,
   0x1f, 0x1e, 0x00, 0x3f, 0x3c, 0x00, 0x7f, 0x78, 0x00, 0xff, 0xf0, 0x00,
   0xff, 0xe1, 0x01, 0xff, 0xc3, 0x03, 0xff, 0x87, 0x07, 0xff, 0x0f, 0x0f,
   0xff, 0x87, 0x07, 0xff, 0xc3, 0x03, 0xff, 0xe1, 0x01, 0xff, 0xf0, 0x00,
   0x7f, 0x78, 0x00, 0x3f, 0x3c, 0x00, 0x1f, 0x1e, 0x00, 0x0f, 0x0f, 0x00,
   0x87, 0x07, 0x00, 0xc3, 0x03, 0x00, 0xe1, 0x01, 0x00 };
