#define PE_width 23
#define PE_height 23
static unsigned char PE_bits[] = {
   0x00, 0xc0, 0x43, 0x00, 0xe0, 0x61, 0x00, 0xf0, 0x70, 0x00, 0x78, 0x78,
   0x00, 0x3c, 0x7c, 0x00, 0x1e, 0x7e, 0x00, 0x0f, 0x7f, 0x80, 0x87, 0x7f,
   0xc0, 0xc3, 0x7f, 0xe0, 0xe1, 0x7f, 0xf0, 0xf0, 0x7f, 0x78, 0xf8, 0x7f,
   0xf0, 0xf0, 0x7f, 0xe0, 0xe1, 0x7f, 0xc0, 0xc3, 0x7f, 0x80, 0x87, 0x7f,
   0x00, 0x0f, 0x7f, 0x00, 0x1e, 0x7e, 0x00, 0x3c, 0x7c, 0x00, 0x78, 0x78,
   0x00, 0xf0, 0x70, 0x00, 0xe0, 0x61, 0x00, 0xc0, 0x43 };
