#define Play_width 7
#define Play_height 10
static unsigned char Play_bits[] = {
   0x00, 0x06, 0x0e, 0x1e, 0x3e, 0x3e, 0x1e, 0x0e, 0x06, 0x00 };
