#define Poweroff_width 12
#define Poweroff_height 11
static unsigned char Desligar_bits[] = {
   0x60, 0x00, 0x60, 0x00, 0x66, 0x06, 0x67, 0x0e, 0x63, 0x0c, 0x63, 0x0c,
   0x63, 0x0c, 0x07, 0x0e, 0x0e, 0x07, 0xfc, 0x03, 0xf8, 0x01 };
