#define Reboot_width 12
#define Reboot_height 11
static unsigned char Reiniciar_bits[] = {
   0xf8, 0x01, 0xfc, 0x03, 0x0e, 0x07, 0x07, 0x0e, 0x03, 0x0c, 0x03, 0x0c,
   0x03, 0x0c, 0x07, 0x0e, 0x0e, 0x07, 0xfc, 0x03, 0xf8, 0x01 };
