#define Stop_width 10
#define Stop_height 10
static unsigned char Stop_bits[] = {
   0x00, 0x00, 0x78, 0x00, 0xfc, 0x00, 0xfe, 0x01, 0xfe, 0x01, 0xfe, 0x01,
   0xfe, 0x01, 0xfc, 0x00, 0x78, 0x00, 0x00, 0x00 };
