#define User_width 11
#define User_height 11
static unsigned char User_bits[] = {
   0x00, 0x00, 0x70, 0x00, 0xf8, 0x00, 0xf8, 0x00, 0x70, 0x00, 0xf8, 0x00,
   0xfc, 0x01, 0xfe, 0x03, 0xfe, 0x03, 0xfe, 0x03, 0x00, 0x00 };
