#define Vertical_width 12
#define Vertical_height 12
static unsigned char Vertical_bits[] = {
   0x00, 0x00, 0x7e, 0x07, 0x7e, 0x07, 0x7e, 0x00, 0x7e, 0x07, 0x7e, 0x07,
   0x7e, 0x07, 0x7e, 0x07, 0x7e, 0x00, 0x7e, 0x07, 0x7e, 0x07, 0x00, 0x00 };
