#define Video_width 14
#define Video_height 13
static unsigned char Video_bits[] = {
   0x00, 0x00, 0xfe, 0x1f, 0x0a, 0x14, 0x0e, 0x1c, 0x0a, 0x14, 0x0e, 0x1c,
   0xfa, 0x17, 0x0e, 0x1c, 0x0a, 0x14, 0x0e, 0x1c, 0x0a, 0x14, 0xfe, 0x1f,
   0x00, 0x00 };
