#define Arq_width 16
#define Arq_height 11
static unsigned char Arq_bits[] = {
   0x00, 0x00, 0x1e, 0x00, 0xfe, 0x0f, 0xfe, 0x1f, 0x3e, 0x10, 0xde, 0x7f,
   0xee, 0x3f, 0xf6, 0x1f, 0xfa, 0x0f, 0xfc, 0x07, 0x00, 0x00 };
