#define Code_width 19
#define Code_height 12
static unsigned char Code_bits[] = {
   0x00, 0x00, 0x00, 0x18, 0xcc, 0x00, 0x18, 0xcc, 0x00, 0x0c, 0x86, 0x01,
   0x0c, 0x86, 0x01, 0x06, 0x06, 0x03, 0x06, 0x03, 0x03, 0x0c, 0x83, 0x01,
   0x0c, 0x83, 0x01, 0x98, 0xc1, 0x00, 0x98, 0xc1, 0x00, 0x00, 0x00, 0x00 };
