#define Game_width 15
#define Game_height 12
static unsigned char Game_bits[] = {
   0x00, 0x02, 0x00, 0x01, 0x80, 0x00, 0xf8, 0x0f, 0xfc, 0x1f, 0xf6, 0x37,
   0xea, 0x2b, 0xb6, 0x36, 0xfe, 0x3f, 0x3e, 0x3e, 0x1c, 0x1c, 0x00, 0x00 };
