#define Gentoo_width 12
#define Gentoo_height 12
static unsigned char Gentoo_bits[] = {
   0x00, 0x00, 0x3c, 0x00, 0xfe, 0x00, 0xfe, 0x01, 0x9c, 0x03, 0x98, 0x07,
   0xf8, 0x07, 0xfc, 0x03, 0xfe, 0x01, 0x7e, 0x00, 0x1e, 0x00, 0x00, 0x00 };
