#define Grid_width 13
#define Grid_height 13
static unsigned char Grid_bits[] = {
   0x00, 0x00, 0xb6, 0x0d, 0xb6, 0x0d, 0x00, 0x00, 0xb6, 0x0d, 0xb6, 0x0d,
   0x00, 0x00, 0xb6, 0x0d, 0xb6, 0x0d, 0x00, 0x00, 0xb6, 0x0d, 0xb6, 0x0d,
   0x00, 0x00 };
