#define Horizontal_width 12
#define Horizontal_height 12
static unsigned char Horizontal_bits[] = {
   0x00, 0x00, 0xfe, 0x07, 0xfe, 0x07, 0xfe, 0x07, 0xfe, 0x07, 0xfe, 0x07,
   0xfe, 0x07, 0x00, 0x00, 0xf6, 0x06, 0xf6, 0x06, 0xf6, 0x06, 0x00, 0x00 };
