#define Img_width 12
#define Img_height 14
static unsigned char Img_bits[] = {
   0x00, 0x00, 0xfe, 0x00, 0x42, 0x01, 0x42, 0x02, 0x42, 0x04, 0xda, 0x07,
   0x1a, 0x04, 0xc2, 0x04, 0xc2, 0x05, 0xfa, 0x07, 0xfe, 0x07, 0xfe, 0x07,
   0xfe, 0x07, 0x00, 0x00 };
