#define Lock_width 12
#define Lock_height 11
static unsigned char Lock_bits[] = {
   0xf8, 0x01, 0xfc, 0x03, 0x0c, 0x03, 0x0c, 0x03, 0xfe, 0x07, 0xfe, 0x07,
   0xfe, 0x07, 0xfe, 0x07, 0xfe, 0x07, 0xfe, 0x07, 0xfe, 0x07 };
