#define Max_width 12
#define Max_height 12
static unsigned char Max_bits[] = {
   0x00, 0x00, 0xfe, 0x07, 0xfe, 0x07, 0xfe, 0x07, 0xfe, 0x07, 0xfe, 0x07,
   0xfe, 0x07, 0xfe, 0x07, 0xfe, 0x07, 0xfe, 0x07, 0xfe, 0x07, 0x00, 0x00 };
