#define Menu_width 14
#define Menu_height 11
static unsigned char Menu_bits[] = {
   0x00, 0x00, 0x00, 0x00, 0xf8, 0x07, 0x00, 0x00, 0x00, 0x00, 0xf8, 0x07,
   0x00, 0x00, 0x00, 0x00, 0xf8, 0x07, 0x00, 0x00, 0x00, 0x00 };
