#define Msg_width 14
#define Msg_height 11
static unsigned char Msg_bits[] = {
   0x00, 0x00, 0xfe, 0x1f, 0xf8, 0x07, 0xe6, 0x19, 0x1e, 0x1e, 0xfe, 0x1f,
   0xfe, 0x1f, 0xfe, 0x1f, 0xfe, 0x1f, 0xfe, 0x1f, 0x00, 0x00 };
