#define Net_width 10
#define Net_height 12
static unsigned char Net_bits[] = {
   0x00, 0x00, 0x80, 0x01, 0x80, 0x01, 0x80, 0x01, 0xb0, 0x01, 0xb0, 0x01,
   0xb0, 0x01, 0xb6, 0x01, 0xb6, 0x01, 0xb6, 0x01, 0xb6, 0x01, 0x00, 0x00 };
