#define Next_width 10
#define Next_height 10
static unsigned char Next_bits[] = {
   0x00, 0x00, 0x22, 0x00, 0x66, 0x00, 0xee, 0x00, 0xfe, 0x01, 0xfe, 0x01,
   0xee, 0x00, 0x66, 0x00, 0x22, 0x00, 0x00, 0x00 };
