#define Packages_width 12
#define Packages_height 12
static unsigned char Packages_bits[] = {
   0x00, 0x00, 0xfe, 0x07, 0xfe, 0x07, 0x00, 0x00, 0x9e, 0x07, 0x9e, 0x07,
   0x06, 0x06, 0x0e, 0x07, 0x9e, 0x07, 0xfe, 0x07, 0xfe, 0x07, 0x00, 0x00 };
