#define Prev_width 10
#define Prev_height 10
static unsigned char Prev_bits[] = {
   0x00, 0x00, 0x10, 0x01, 0x98, 0x01, 0xdc, 0x01, 0xfe, 0x01, 0xfe, 0x01,
   0xdc, 0x01, 0x98, 0x01, 0x10, 0x01, 0x00, 0x00 };
