#define Relogio_width 10
#define Relogio_height 10
static unsigned char Relogio_bits[] = {
   0x00, 0x00, 0xfe, 0x01, 0xee, 0x01, 0xee, 0x01, 0xee, 0x01, 0x0e, 0x01,
   0xfe, 0x01, 0xfe, 0x01, 0xfe, 0x01, 0x00, 0x00 };
