#define Temp_width 9
#define Temp_height 13
static unsigned char Temp_bits[] = {
   0x00, 0x00, 0x08, 0x00, 0x14, 0x00, 0x14, 0x00, 0xd4, 0x00, 0x14, 0x00,
   0xd4, 0x00, 0x1c, 0x00, 0x1c, 0x00, 0x3e, 0x00, 0x3e, 0x00, 0x1c, 0x00,
   0x00, 0x00 };
