#define Term_width 15
#define Term_height 10
static unsigned char Term_bits[] = {
   0x00, 0x00, 0xfe, 0x3f, 0xfe, 0x3f, 0x02, 0x20, 0x32, 0x20, 0x42, 0x20,
   0x32, 0x20, 0x02, 0x20, 0xfe, 0x3f, 0x00, 0x00 };
