#define Volume_width 13
#define Volume_height 13
static unsigned char Volume_bits[] = {
   0x00, 0x00, 0x40, 0x08, 0x60, 0x04, 0x70, 0x02, 0x78, 0x00, 0x7e, 0x00,
   0x7e, 0x0e, 0x7e, 0x00, 0x78, 0x00, 0x70, 0x02, 0x60, 0x04, 0x40, 0x08,
   0x00, 0x00 };
