#define Web_width 17
#define Web_height 9
static unsigned char Web_bits[] = {
   0x63, 0x8c, 0x01, 0x63, 0x8c, 0x01, 0xc6, 0xc6, 0x00, 0xc6, 0xc6, 0x00,
   0x8c, 0x63, 0x00, 0x8c, 0x63, 0x00, 0xd8, 0x37, 0x00, 0xf8, 0x3e, 0x00,
   0x70, 0x1c, 0x00 };
